<svg width="16" height="16" xmlns="http://www.w3.org/2000/svg">

 <g>
  <title>background</title>
  <rect fill="none" id="canvas_background" height="402" width="582" y="-1" x="-1"/>
 </g>
 <g>
  <title>Layer 1</title>
  <path transform="rotate(179.6663055419922 8.02902030944824,8.36924934387207) " id="svg_1" fill="#DEE1F0" d="m1.89734,9.41c0.02465,-0.03619 0.0562,-0.06717 0.09283,-0.09116c0.03664,-0.02399 0.07764,-0.04053 0.12067,-0.04868c0.04303,-0.00814 0.08724,-0.00772 0.1301,0.00123c0.04287,0.00895 0.08355,0.02626 0.11973,0.05094l5.668,3.87167l5.66003,-3.871c0.0729,-0.04994 0.1627,-0.06887 0.2496,-0.05262c0.0869,0.01626 0.1637,0.06636 0.2137,0.13929l0.376,0.55033c0.0499,0.0729 0.0689,0.1627 0.0526,0.2496c-0.0162,0.0869 -0.0663,0.1638 -0.1393,0.2137l-6.22396,4.257c-0.05543,0.0379 -0.12102,0.0582 -0.18817,0.0582c-0.06715,0 -0.13274,-0.0203 -0.18817,-0.0582l-6.23233,-4.2563c-0.03617,-0.0247 -0.06711,-0.0562 -0.09107,-0.0929c-0.02397,-0.0366 -0.04047,-0.0776 -0.04858,-0.1207c-0.00811,-0.043 -0.00767,-0.0872 0.00131,-0.1301c0.00898,-0.0428 0.02631,-0.08348 0.05101,-0.11963l0.376,-0.55067zm12.46496,-3.41c0.0438,0 0.0872,0.00862 0.1276,0.02537c0.0404,0.01676 0.0772,0.04131 0.1081,0.07226c0.031,0.03095 0.0555,0.0677 0.0723,0.10814c0.0167,0.04044 0.0254,0.08379 0.0254,0.12756l0,0.66667c0,0.04377 -0.0087,0.08712 -0.0254,0.12756c-0.0168,0.04044 -0.0413,0.07719 -0.0723,0.10814c-0.0309,0.03095 -0.0677,0.05551 -0.1081,0.07226c-0.0404,0.01675 -0.0838,0.02537 -0.1276,0.02537l-12.66663,0c-0.04378,0 -0.08712,-0.00862 -0.12756,-0.02537c-0.04044,-0.01675 -0.07719,-0.04131 -0.10814,-0.07226c-0.03096,-0.03095 -0.05551,-0.0677 -0.07226,-0.10814c-0.01675,-0.04044 -0.02537,-0.08379 -0.02537,-0.12756l0,-0.66667c0,-0.04377 0.00862,-0.08712 0.02537,-0.12756c0.01675,-0.04044 0.0413,-0.07719 0.07226,-0.10814c0.03095,-0.03095 0.0677,-0.0555 0.10814,-0.07226c0.04044,-0.01675 0.08378,-0.02537 0.12756,-0.02537l12.66663,0zm0,-4c0.0438,0 0.0872,0.00862 0.1276,0.02537c0.0404,0.01676 0.0772,0.04131 0.1081,0.07226c0.031,0.03095 0.0555,0.0677 0.0723,0.10814c0.0167,0.04044 0.0254,0.08379 0.0254,0.12756l0,0.66667c0,0.04377 -0.0087,0.08712 -0.0254,0.12756c-0.0168,0.04044 -0.0413,0.07719 -0.0723,0.10814c-0.0309,0.03096 -0.0677,0.05551 -0.1081,0.07226c-0.0404,0.01675 -0.0838,0.02537 -0.1276,0.02537l-12.66663,0c-0.04378,0 -0.08712,-0.00862 -0.12756,-0.02537c-0.04044,-0.01675 -0.07719,-0.0413 -0.10814,-0.07226c-0.03096,-0.03095 -0.05551,-0.0677 -0.07226,-0.10814c-0.01675,-0.04044 -0.02537,-0.08379 -0.02537,-0.12756l0,-0.66667c0,-0.04377 0.00862,-0.08712 0.02537,-0.12756c0.01675,-0.04044 0.0413,-0.07719 0.07226,-0.10814c0.03095,-0.03095 0.0677,-0.0555 0.10814,-0.07226c0.04044,-0.01675 0.08378,-0.02537 0.12756,-0.02537l12.66663,0z"/>
 </g>
</svg>