<svg width="16" height="16" viewBox="0 0 16 16" fill="none" xmlns="http://www.w3.org/2000/svg">
<path d="M1.89734 9.41C1.92199 9.37381 1.95354 9.34283 1.99017 9.31884C2.02681 9.29485 2.06781 9.27831 2.11084 9.27016C2.15387 9.26202 2.19808 9.26244 2.24094 9.27139C2.28381 9.28034 2.32449 9.29765 2.36067 9.32233L8.02867 13.194L13.6887 9.323C13.7616 9.27306 13.8514 9.25413 13.9383 9.27038C14.0252 9.28664 14.102 9.33674 14.152 9.40967L14.528 9.96C14.5779 10.0329 14.5969 10.1227 14.5806 10.2096C14.5644 10.2965 14.5143 10.3734 14.4413 10.4233L8.21734 14.6803C8.16191 14.7182 8.09632 14.7385 8.02917 14.7385C7.96202 14.7385 7.89643 14.7182 7.841 14.6803L1.60867 10.424C1.5725 10.3993 1.54156 10.3678 1.5176 10.3311C1.49363 10.2945 1.47713 10.2535 1.46902 10.2104C1.46091 10.1674 1.46135 10.1232 1.47033 10.0803C1.47931 10.0375 1.49664 9.99682 1.52134 9.96067L1.89734 9.41ZM14.3623 6C14.4061 6 14.4495 6.00862 14.4899 6.02537C14.5303 6.04213 14.5671 6.06668 14.598 6.09763C14.629 6.12858 14.6535 6.16533 14.6703 6.20577C14.687 6.24621 14.6957 6.28956 14.6957 6.33333V7C14.6957 7.04377 14.687 7.08712 14.6703 7.12756C14.6535 7.168 14.629 7.20475 14.598 7.2357C14.5671 7.26665 14.5303 7.29121 14.4899 7.30796C14.4495 7.32471 14.4061 7.33333 14.3623 7.33333H1.69567C1.65189 7.33333 1.60855 7.32471 1.56811 7.30796C1.52767 7.29121 1.49092 7.26665 1.45997 7.2357C1.42901 7.20475 1.40446 7.168 1.38771 7.12756C1.37096 7.08712 1.36234 7.04377 1.36234 7V6.33333C1.36234 6.28956 1.37096 6.24621 1.38771 6.20577C1.40446 6.16533 1.42901 6.12858 1.45997 6.09763C1.49092 6.06668 1.52767 6.04213 1.56811 6.02537C1.60855 6.00862 1.65189 6 1.69567 6H14.3623ZM14.3623 2C14.4061 2 14.4495 2.00862 14.4899 2.02537C14.5303 2.04213 14.5671 2.06668 14.598 2.09763C14.629 2.12858 14.6535 2.16533 14.6703 2.20577C14.687 2.24621 14.6957 2.28956 14.6957 2.33333V3C14.6957 3.04377 14.687 3.08712 14.6703 3.12756C14.6535 3.168 14.629 3.20475 14.598 3.2357C14.5671 3.26666 14.5303 3.29121 14.4899 3.30796C14.4495 3.32471 14.4061 3.33333 14.3623 3.33333H1.69567C1.65189 3.33333 1.60855 3.32471 1.56811 3.30796C1.52767 3.29121 1.49092 3.26666 1.45997 3.2357C1.42901 3.20475 1.40446 3.168 1.38771 3.12756C1.37096 3.08712 1.36234 3.04377 1.36234 3V2.33333C1.36234 2.28956 1.37096 2.24621 1.38771 2.20577C1.40446 2.16533 1.42901 2.12858 1.45997 2.09763C1.49092 2.06668 1.52767 2.04213 1.56811 2.02537C1.60855 2.00862 1.65189 2 1.69567 2H14.3623Z" fill="#DEE1F0"/>
</svg>
