<svg width="16" height="16" viewBox="0 0 16 16" fill="none" xmlns="http://www.w3.org/2000/svg">
<g clip-path="url(#clip0)">
<path d="M15.7005 3.93327C15.6085 3.87244 15.5027 3.83547 15.3928 3.8257C15.2829 3.81593 15.1723 3.83366 15.071 3.87729L13.153 4.69887V1.93718C13.153 1.84962 13.1358 1.76292 13.1023 1.68203C13.0688 1.60113 13.0197 1.52763 12.9578 1.46572C12.8959 1.40381 12.8224 1.3547 12.7415 1.32121C12.6606 1.28771 12.5739 1.27048 12.4863 1.27051H0.666672C0.579116 1.27048 0.492414 1.28771 0.411518 1.32121C0.330623 1.3547 0.25712 1.40381 0.195209 1.46572C0.133298 1.52763 0.0841919 1.60113 0.0506972 1.68203C0.0172026 1.76292 -2.46088e-05 1.84962 2.63842e-08 1.93718L2.63842e-08 14.0628C-2.46088e-05 14.1504 0.0172026 14.2371 0.0506972 14.318C0.0841919 14.3989 0.133298 14.4724 0.195209 14.5343C0.25712 14.5962 0.330623 14.6453 0.411518 14.6788C0.492414 14.7123 0.579116 14.7295 0.666672 14.7295H12.4863C12.5739 14.7295 12.6606 14.7123 12.7415 14.6788C12.8224 14.6453 12.8959 14.5962 12.9578 14.5343C13.0197 14.4724 13.0688 14.3989 13.1023 14.318C13.1358 14.2371 13.153 14.1504 13.153 14.0628V11.3012L15.071 12.1227C15.1538 12.1585 15.2431 12.1769 15.3333 12.1768C15.4209 12.1768 15.5076 12.1596 15.5885 12.1261C15.6694 12.0927 15.743 12.0436 15.8049 11.9816C15.8668 11.9197 15.9159 11.8462 15.9494 11.7653C15.9829 11.6844 16.0001 11.5977 16 11.5101V4.48991C15.9999 4.37962 15.9725 4.27105 15.9203 4.17392C15.868 4.07678 15.7925 3.99411 15.7005 3.93327V3.93327ZM11.8197 13.3962H1.33333V2.60385H11.8197V13.3962ZM14.6667 10.499L13.153 9.85126L13.1533 6.14879L14.6667 5.50101V10.499Z" fill="#DEE1F0"/>
<path d="M8.20187 4.86562C8.20187 5.04071 8.23636 5.21409 8.30337 5.37586C8.37037 5.53763 8.46859 5.68461 8.5924 5.80842C8.71621 5.93223 8.86319 6.03044 9.02496 6.09745C9.18673 6.16446 9.36011 6.19894 9.5352 6.19894C9.7103 6.19894 9.88368 6.16446 10.0454 6.09745C10.2072 6.03044 10.3542 5.93223 10.478 5.80842C10.6018 5.68461 10.7 5.53763 10.767 5.37586C10.834 5.21409 10.8685 5.04071 10.8685 4.86562C10.8685 4.69052 10.834 4.51714 10.767 4.35537C10.7 4.19361 10.6018 4.04662 10.478 3.92281C10.3542 3.799 10.2072 3.70079 10.0454 3.63378C9.88368 3.56678 9.7103 3.53229 9.5352 3.53229C9.36011 3.53229 9.18673 3.56678 9.02496 3.63378C8.86319 3.70079 8.71621 3.799 8.5924 3.92281C8.46859 4.04662 8.37037 4.19361 8.30337 4.35537C8.23636 4.51714 8.20187 4.69052 8.20187 4.86562Z" fill="#DEE1F0"/>
<path d="M4.71387 8.31299H5.36426C5.69238 8.31006 5.95166 8.2251 6.14209 8.05811C6.33545 7.89111 6.43213 7.64941 6.43213 7.33301C6.43213 7.02832 6.35156 6.79248 6.19043 6.62549C6.03223 6.45557 5.78906 6.37061 5.46094 6.37061C5.17383 6.37061 4.93799 6.4541 4.75342 6.62109C4.56885 6.78516 4.47656 7.00049 4.47656 7.26709H3.40869C3.40869 6.93896 3.49512 6.64014 3.66797 6.37061C3.84375 6.10107 4.08691 5.8916 4.39746 5.74219C4.71094 5.58984 5.06104 5.51367 5.44775 5.51367C6.08643 5.51367 6.5874 5.6748 6.95068 5.99707C7.31689 6.31641 7.5 6.76172 7.5 7.33301C7.5 7.62012 7.40771 7.89111 7.22314 8.146C7.0415 8.39795 6.80566 8.58838 6.51562 8.71729C6.86719 8.8374 7.13379 9.02637 7.31543 9.28418C7.5 9.54199 7.59229 9.84961 7.59229 10.207C7.59229 10.7812 7.39453 11.2383 6.99902 11.5781C6.60645 11.918 6.08936 12.0879 5.44775 12.0879C4.83252 12.0879 4.32861 11.9238 3.93604 11.5957C3.54346 11.2676 3.34717 10.8311 3.34717 10.2861H4.41504C4.41504 10.5674 4.50879 10.7959 4.69629 10.9717C4.88672 11.1475 5.1416 11.2354 5.46094 11.2354C5.79199 11.2354 6.05273 11.1475 6.24316 10.9717C6.43359 10.7959 6.52881 10.541 6.52881 10.207C6.52881 9.87012 6.4292 9.61084 6.22998 9.4292C6.03076 9.24756 5.73486 9.15674 5.34229 9.15674H4.71387V8.31299Z" fill="white"/>
</g>
<defs>
<clipPath id="clip0">
<rect width="16" height="16" fill="white"/>
</clipPath>
</defs>
</svg>
