<svg width="16" height="16" viewBox="0 0 16 16" fill="none" xmlns="http://www.w3.org/2000/svg">
<g clip-path="url(#clip0)">
<path d="M15.7005 3.93327C15.6085 3.87244 15.5027 3.83547 15.3928 3.8257C15.2829 3.81593 15.1723 3.83366 15.071 3.87729L13.153 4.69887V1.93718C13.153 1.84962 13.1358 1.76292 13.1023 1.68203C13.0688 1.60113 13.0197 1.52763 12.9578 1.46572C12.8959 1.40381 12.8224 1.3547 12.7415 1.32121C12.6606 1.28771 12.5739 1.27048 12.4863 1.27051H0.666672C0.579116 1.27048 0.492414 1.28771 0.411518 1.32121C0.330623 1.3547 0.25712 1.40381 0.195209 1.46572C0.133298 1.52763 0.0841919 1.60113 0.0506972 1.68203C0.0172026 1.76292 -2.46088e-05 1.84962 2.63842e-08 1.93718L2.63842e-08 14.0628C-2.46088e-05 14.1504 0.0172026 14.2371 0.0506972 14.318C0.0841919 14.3989 0.133298 14.4724 0.195209 14.5343C0.25712 14.5962 0.330623 14.6453 0.411518 14.6788C0.492414 14.7123 0.579116 14.7295 0.666672 14.7295H12.4863C12.5739 14.7295 12.6606 14.7123 12.7415 14.6788C12.8224 14.6453 12.8959 14.5962 12.9578 14.5343C13.0197 14.4724 13.0688 14.3989 13.1023 14.318C13.1358 14.2371 13.153 14.1504 13.153 14.0628V11.3012L15.071 12.1227C15.1538 12.1585 15.2431 12.1769 15.3333 12.1768C15.4209 12.1768 15.5076 12.1596 15.5885 12.1261C15.6694 12.0927 15.743 12.0436 15.8049 11.9816C15.8668 11.9197 15.9159 11.8462 15.9494 11.7653C15.9829 11.6844 16.0001 11.5977 16 11.5101V4.48991C15.9999 4.37962 15.9725 4.27105 15.9203 4.17392C15.868 4.07678 15.7925 3.99411 15.7005 3.93327V3.93327ZM11.8197 13.3962H1.33333V2.60385H11.8197V13.3962ZM14.6667 10.499L13.153 9.85126L13.1533 6.14879L14.6667 5.50101V10.499Z" fill="#DEE1F0"/>
<path d="M8.20187 4.86562C8.20187 5.04071 8.23636 5.21409 8.30337 5.37586C8.37037 5.53763 8.46859 5.68461 8.5924 5.80842C8.71621 5.93223 8.86319 6.03044 9.02496 6.09745C9.18673 6.16446 9.36011 6.19894 9.5352 6.19894C9.7103 6.19894 9.88368 6.16446 10.0454 6.09745C10.2072 6.03044 10.3542 5.93223 10.478 5.80842C10.6018 5.68461 10.7 5.53763 10.767 5.37586C10.834 5.21409 10.8685 5.04071 10.8685 4.86562C10.8685 4.69052 10.834 4.51714 10.767 4.35537C10.7 4.19361 10.6018 4.04662 10.478 3.92281C10.3542 3.799 10.2072 3.70079 10.0454 3.63378C9.88368 3.56678 9.7103 3.53229 9.5352 3.53229C9.36011 3.53229 9.18673 3.56678 9.02496 3.63378C8.86319 3.70079 8.71621 3.799 8.5924 3.92281C8.46859 4.04662 8.37037 4.19361 8.30337 4.35537C8.23636 4.51714 8.20187 4.69052 8.20187 4.86562Z" fill="#DEE1F0"/>
<path d="M3.76465 8.82715L4.11182 5.60156H7.54834V6.52441H4.99951L4.82373 8.05371C5.11963 7.88379 5.45361 7.79883 5.82568 7.79883C6.43506 7.79883 6.9082 7.99365 7.24512 8.3833C7.58496 8.77295 7.75488 9.29736 7.75488 9.95654C7.75488 10.6069 7.56738 11.1255 7.19238 11.5122C6.81738 11.896 6.30322 12.0879 5.6499 12.0879C5.06396 12.0879 4.57764 11.9224 4.19092 11.5913C3.80713 11.2573 3.59912 10.8179 3.56689 10.2729H4.59961C4.64062 10.5835 4.75195 10.8223 4.93359 10.9893C5.11523 11.1533 5.35254 11.2354 5.64551 11.2354C5.97363 11.2354 6.22852 11.1182 6.41016 10.8838C6.59473 10.6494 6.68701 10.3301 6.68701 9.92578C6.68701 9.53613 6.58594 9.22852 6.38379 9.00293C6.18164 8.77441 5.90332 8.66016 5.54883 8.66016C5.35547 8.66016 5.19141 8.68652 5.05664 8.73926C4.92188 8.78906 4.77539 8.88867 4.61719 9.03809L3.76465 8.82715Z" fill="white"/>
</g>
<defs>
<clipPath id="clip0">
<rect width="16" height="16" fill="white"/>
</clipPath>
</defs>
</svg>
