<svg width="16" height="16" viewBox="0 0 16 16" fill="none" xmlns="http://www.w3.org/2000/svg">
<path d="M14.2096 5.34076V14.2008H1.79037V1.79919H12.347V0.549194H1.47787C0.960937 0.549194 0.540375 0.969757 0.540375 1.48669V14.5133C0.540375 15.0302 0.960937 15.4508 1.47787 15.4508H14.5222C15.0391 15.4508 15.4597 15.0302 15.4597 14.5133V5.34076H14.2096V5.34076Z" fill="#DEE1F0"/>
<path d="M11.428 5.25957C11.428 5.06504 11.3524 4.88229 11.2151 4.74498C11.0777 4.60767 10.895 4.53204 10.7005 4.53204C10.5059 4.53204 10.3232 4.60767 10.1859 4.74498L7.97784 6.95301L5.7698 4.74498C5.63249 4.60767 5.44974 4.53204 5.25521 4.53204C5.06068 4.53204 4.87793 4.60764 4.74062 4.74495C4.6033 4.88226 4.52771 5.06501 4.52771 5.25954C4.52771 5.45407 4.6033 5.63682 4.74062 5.77414L6.94865 7.9822L4.74062 10.1903C4.4569 10.474 4.4569 10.9357 4.74062 11.2194C4.87793 11.3568 5.06068 11.4324 5.25521 11.4324C5.44974 11.4324 5.63249 11.3567 5.7698 11.2194L7.97784 9.01142L10.1859 11.2194C10.3232 11.3568 10.5059 11.4324 10.7005 11.4324C10.895 11.4324 11.0777 11.3567 11.2151 11.2194C11.3524 11.0821 11.428 10.8994 11.428 10.7049C11.428 10.5103 11.3524 10.3276 11.2151 10.1902L9.00705 7.98223L11.2151 5.7742C11.3524 5.63686 11.428 5.45411 11.428 5.25957V5.25957Z" fill="#DEE1F0"/>
</svg>
