<svg width="16" height="16" viewBox="0 0 16 16" fill="none" xmlns="http://www.w3.org/2000/svg">
<path d="M3.74959 15C3.55068 15 3.35991 14.9181 3.21926 14.7724C3.07861 14.6267 2.99959 14.4291 2.99959 14.2231C2.99959 14.017 3.07861 13.8194 3.21926 13.6737C3.35991 13.528 3.55068 13.4461 3.74959 13.4461H9.99959C10.9278 13.4461 11.8181 13.0641 12.4745 12.3842C13.1308 11.7042 13.4996 10.782 13.4996 9.82038C13.4996 8.85877 13.1308 7.93655 12.4745 7.25659C11.8181 6.57664 10.9278 6.19464 9.99959 6.19464H3.55959L5.77959 8.49439C5.85244 8.56574 5.91073 8.65148 5.95104 8.74657C5.99135 8.84165 6.01285 8.94414 6.01427 9.04798C6.01568 9.15182 5.99699 9.25489 5.9593 9.35112C5.9216 9.44735 5.86566 9.53477 5.7948 9.60822C5.72393 9.68167 5.63956 9.73965 5.54669 9.77875C5.45382 9.81784 5.35433 9.83725 5.25409 9.83583C5.15385 9.83442 5.05491 9.81219 4.9631 9.77048C4.8713 9.72877 4.78849 9.66842 4.71959 9.59299L1.21959 5.96725C1.07899 5.82155 1 5.62397 1 5.41795C1 5.21194 1.07899 5.01435 1.21959 4.86865L4.71959 1.24292C4.78849 1.16749 4.8713 1.10714 4.9631 1.06542C5.05491 1.02371 5.15385 1.00149 5.25409 1.00007C5.35433 0.998653 5.45382 1.01806 5.54669 1.05716C5.63956 1.09626 5.72393 1.15424 5.7948 1.22769C5.86566 1.30114 5.9216 1.38856 5.9593 1.48479C5.99699 1.58101 6.01568 1.68409 6.01427 1.78793C6.01285 1.89177 5.99135 1.99426 5.95104 2.08934C5.91073 2.18442 5.85244 2.27017 5.77959 2.34152L3.55959 4.64075H9.99959L10.1396 4.64282C12.8361 4.71948 14.9996 7.00784 14.9996 9.82038C14.9996 12.6811 12.7611 15 9.99959 15H3.74959Z" fill="#DEE1F0"/>
</svg>
