<?xml version="1.0" standalone="no"?><!DOCTYPE svg PUBLIC "-//W3C//DTD SVG 1.1//EN" "http://www.w3.org/Graphics/SVG/1.1/DTD/svg11.dtd"><svg t="1611806811764" class="icon" viewBox="0 0 1024 1024" version="1.1" xmlns="http://www.w3.org/2000/svg" p-id="16171" xmlns:xlink="http://www.w3.org/1999/xlink" width="16" height="16"><defs><style type="text/css"></style></defs><path d="M830.1056 476.16A354.048 354.048 0 1 0 476.16 830.1056 354.048 354.048 0 0 0 830.1056 476.16z m70.8096 0A424.96 424.96 0 1 1 476.16 51.2a424.96 424.96 0 0 1 424.96 424.96z" fill="#DEE1F0" p-id="16172"></path><path d="M732.0064 782.7968a36.0448 36.0448 0 0 1 50.944-50.944l179.2 179.2a36.0448 36.0448 0 0 1-50.944 50.944z m-404.9408-276.48a35.84 35.84 0 0 1 0-71.68h286.72a35.84 35.84 0 0 1 0 71.68z" fill="#DEE1F0" p-id="16173"></path><path d="M512.3584 619.9808a35.84 35.84 0 0 1-71.68 0v-286.72a35.84 35.84 0 0 1 71.68 0z" fill="#DEE1F0" p-id="16174"></path></svg>
