<svg width="16" height="16" viewBox="0 0 16 16" fill="none" xmlns="http://www.w3.org/2000/svg">
<g clip-path="url(#clip0)">
<path d="M13.7773 3.62243C13.8698 3.53079 13.9731 3.42657 14.0405 3.30798C14.5454 2.68178 14.6056 1.73305 14.1816 1.04486C13.7557 0.352181 13.1232 0 12.303 0H2.14902C1.95227 0 1.74922 4.18359e-09 1.57223 0.055702C1.13001 0.166147 0.736933 0.420195 0.4546 0.778032C0.162911 1.14159 0.00270364 1.59308 0 2.05918C0 2.65214 0.226402 3.17861 0.637878 3.54157C1.93907 4.80518 3.22925 6.08009 4.50827 7.36614V11.5294L4.51007 11.5645C4.57835 12.1125 4.99521 12.4117 5.49833 12.1952L5.50731 12.1916C5.78043 12.055 5.93676 11.781 5.93676 11.4387V7.15771C5.93676 6.86842 5.84781 6.63303 5.67262 6.45694C5.04193 5.82805 4.42112 5.1722 3.82188 4.53882C3.18821 3.86475 2.54548 3.19926 1.89387 2.54253L1.85973 2.50839L1.8202 2.48862C1.80357 2.4721 1.78853 2.45406 1.77528 2.43472C1.75907 2.41335 1.74199 2.39267 1.72407 2.37273C1.60817 2.22449 1.58391 2.09871 1.63782 1.92981C1.73126 1.71688 1.91992 1.47341 2.14812 1.47341H12.3928C12.5177 1.47341 12.6381 1.54079 12.7315 1.66387C12.8528 1.82289 12.8977 2.03223 12.8483 2.2164C12.8222 2.31792 12.78 2.36374 12.6524 2.49132C11.2419 3.85692 9.8943 5.20455 8.46761 6.63034L8.45952 6.63842C8.31577 6.78217 8.14957 6.9924 8.14957 7.33919V14.5328C8.14957 14.6209 8.14957 14.8706 8.33195 15.0701C8.33195 15.0701 8.38675 15.195 8.62573 15.2857C8.92041 15.398 9.2079 15.2695 9.2079 15.2695L9.28337 15.2138C9.57805 14.9928 9.57805 14.6478 9.57805 14.4412V7.63837C10.2842 6.9349 11.0155 6.25031 11.7217 5.58817C12.4422 4.91436 13.1232 4.27648 13.7764 3.62243H13.7773ZM15.3531 12.8402H11.4827C11.3976 12.8394 11.3131 12.8555 11.2343 12.8878C11.1555 12.92 11.0839 12.9676 11.0237 13.0279C10.9636 13.0881 10.916 13.1598 10.8839 13.2386C10.8518 13.3175 10.8358 13.4019 10.8367 13.4871V13.6686C10.8367 14.0728 11.1656 14.3154 11.4836 14.3154H15.3531C15.7574 14.3154 16 13.9866 16 13.6686V13.4862C16 13.0999 15.7394 12.8393 15.3531 12.8393V12.8402ZM15.3531 10.5178H11.4827C11.3976 10.517 11.3131 10.5331 11.2343 10.5653C11.1555 10.5976 11.0839 10.6452 11.0237 10.7054C10.9636 10.7657 10.916 10.8373 10.8839 10.9162C10.8518 10.9951 10.8358 11.0795 10.8367 11.1647V11.3012C10.8367 11.7055 11.1656 11.9472 11.4836 11.9472H15.3531C15.7574 11.9472 16 11.6184 16 11.3003V11.1647C16.0009 11.0794 15.9848 10.9949 15.9527 10.916C15.9205 10.8371 15.8729 10.7654 15.8126 10.7051C15.7524 10.6449 15.6807 10.5972 15.6018 10.5651C15.5229 10.5329 15.4383 10.5168 15.3531 10.5178ZM15.3531 8.28703H11.4827C11.3976 8.28618 11.3131 8.30235 11.2343 8.33457C11.1555 8.36679 11.0839 8.41442 11.0237 8.47466C10.9636 8.53491 10.916 8.60656 10.8839 8.68542C10.8518 8.76428 10.8358 8.84875 10.8367 8.93389V9.02373C10.8367 9.42802 11.1656 9.67059 11.4836 9.67059H15.3531C15.7574 9.67059 16 9.34177 16 9.02373V8.93389C16 8.54757 15.7394 8.28703 15.3531 8.28703Z" fill="#DEE1F0"/>
<path d="M13.7773 3.62243C13.8698 3.53079 13.9731 3.42657 14.0405 3.30798C14.5454 2.68178 14.6056 1.73305 14.1816 1.04486C13.7557 0.352181 13.1232 0 12.303 0H2.14902C1.95227 0 1.74922 4.18359e-09 1.57223 0.055702C1.13001 0.166147 0.736933 0.420195 0.4546 0.778032C0.162911 1.14159 0.00270364 1.59308 0 2.05918C0 2.65214 0.226402 3.17861 0.637878 3.54157C1.93907 4.80518 3.22925 6.08009 4.50827 7.36614V11.5294L4.51007 11.5645C4.57835 12.1125 4.99521 12.4117 5.49833 12.1952L5.50731 12.1916C5.78043 12.055 5.93676 11.781 5.93676 11.4387V7.15771C5.93676 6.86842 5.84781 6.63303 5.67262 6.45694C5.04193 5.82805 4.42112 5.1722 3.82188 4.53882C3.18821 3.86475 2.54548 3.19926 1.89387 2.54253L1.85973 2.50839L1.8202 2.48862C1.80357 2.4721 1.78853 2.45406 1.77528 2.43472C1.75907 2.41335 1.74199 2.39267 1.72407 2.37273C1.60817 2.22449 1.58391 2.09871 1.63782 1.92981C1.73126 1.71688 1.91992 1.47341 2.14812 1.47341H12.3928C12.5177 1.47341 12.6381 1.54079 12.7315 1.66387C12.8528 1.82289 12.8977 2.03223 12.8483 2.2164C12.8222 2.31792 12.78 2.36374 12.6524 2.49132C11.2419 3.85692 9.8943 5.20455 8.46761 6.63034L8.45952 6.63842C8.31577 6.78217 8.14957 6.9924 8.14957 7.33919V14.5328C8.14957 14.6209 8.14957 14.8706 8.33195 15.0701C8.33195 15.0701 8.38675 15.195 8.62573 15.2857C8.92041 15.398 9.2079 15.2695 9.2079 15.2695L9.28337 15.2138C9.57805 14.9928 9.57805 14.6478 9.57805 14.4412V7.63837C10.2842 6.9349 11.0155 6.25031 11.7217 5.58817C12.4422 4.91436 13.1232 4.27648 13.7764 3.62243H13.7773ZM15.3531 12.8402H11.4827C11.3976 12.8394 11.3131 12.8555 11.2343 12.8878C11.1555 12.92 11.0839 12.9676 11.0237 13.0279C10.9636 13.0881 10.916 13.1598 10.8839 13.2386C10.8518 13.3175 10.8358 13.4019 10.8367 13.4871V13.6686C10.8367 14.0728 11.1656 14.3154 11.4836 14.3154H15.3531C15.7574 14.3154 16 13.9866 16 13.6686V13.4862C16 13.0999 15.7394 12.8393 15.3531 12.8393V12.8402ZM15.3531 10.5178H11.4827C11.3976 10.517 11.3131 10.5331 11.2343 10.5653C11.1555 10.5976 11.0839 10.6452 11.0237 10.7054C10.9636 10.7657 10.916 10.8373 10.8839 10.9162C10.8518 10.9951 10.8358 11.0795 10.8367 11.1647V11.3012C10.8367 11.7055 11.1656 11.9472 11.4836 11.9472H15.3531C15.7574 11.9472 16 11.6184 16 11.3003V11.1647C16.0009 11.0795 15.9848 10.9949 15.9527 10.916C15.9205 10.8371 15.8729 10.7654 15.8126 10.7051C15.7524 10.6449 15.6807 10.5972 15.6018 10.5651C15.5229 10.5329 15.4383 10.5168 15.3531 10.5178V10.5178ZM15.3531 8.28703H11.4827C11.3976 8.28618 11.3131 8.30235 11.2343 8.33457C11.1555 8.36679 11.0839 8.41442 11.0237 8.47466C10.9636 8.53491 10.916 8.60656 10.8839 8.68542C10.8518 8.76428 10.8358 8.84875 10.8367 8.93389V9.02373C10.8367 9.42802 11.1656 9.67059 11.4836 9.67059H15.3531C15.7574 9.67059 16 9.34177 16 9.02373V8.93389C16 8.54757 15.7394 8.28703 15.3531 8.28703Z" fill="#DEE1F0"/>
</g>
<defs>
<clipPath id="clip0">
<rect width="16" height="16" fill="white"/>
</clipPath>
</defs>
</svg>
