<svg width="16" height="16" viewBox="0 0 16 16" fill="none" xmlns="http://www.w3.org/2000/svg">
<path d="M2.5 2.5H5.25001C5.66422 2.5 6 2.16422 6 1.75001C6 1.3358 5.66422 1 5.25001 1H1.96873C1.43372 1 1 1.43372 1 1.96875V5.25001C1 5.66422 1.3358 6 1.75001 6C2.16422 6 2.5 5.66422 2.5 5.25001V2.5Z" fill="#DEE1F0"/>
<path d="M2.2262 3.20118L5.83014 6.77565C6.13175 7.07478 6.62073 7.07478 6.92231 6.77565C7.22392 6.47653 7.22392 5.99155 6.92231 5.69242L3.31837 2.11797C3.01677 1.81883 2.52779 1.81883 2.2262 2.11797C1.9246 2.41709 1.9246 2.90206 2.2262 3.2012V3.20118ZM13.4555 2.53191H10.6238C10.1972 2.53191 9.85149 2.18899 9.85149 1.76596C9.85149 1.34294 10.1972 1 10.6238 1H14.0025C14.5534 1 15 1.44295 15 1.98936V5.34043C15 5.76345 14.6542 6.10637 14.2277 6.10637C13.8012 6.10637 13.4555 5.76345 13.4555 5.34043V2.53191V2.53191Z" fill="#DEE1F0"/>
<path d="M13.7803 3.28032L10.2803 6.78032C9.98744 7.07323 9.51256 7.07323 9.21968 6.78032C8.92677 6.48744 8.92677 6.01256 9.21968 5.71966L12.7197 2.21968C13.0126 1.92677 13.4874 1.92677 13.7803 2.21968C14.0732 2.51256 14.0732 2.98742 13.7803 3.28032Z" fill="#DEE1F0"/>
<path d="M13.5 13.5H10.75C10.3358 13.5 10 13.8358 10 14.25C10 14.6642 10.3358 15 10.75 15H14.0313C14.5663 15 15 14.5663 15 14.0313V10.75C15 10.3358 14.6642 10 14.25 10C13.8358 10 13.5 10.3358 13.5 10.75V13.5V13.5Z" fill="#DEE1F0"/>
<path d="M13.7803 12.7197L10.2803 9.21968C9.98744 8.92677 9.51256 8.92677 9.21968 9.21968C8.92677 9.51256 8.92677 9.98744 9.21968 10.2803L12.7197 13.7803C13.0126 14.0732 13.4874 14.0732 13.7803 13.7803C14.0732 13.4874 14.0732 13.0126 13.7803 12.7197V12.7197Z" fill="#DEE1F0"/>
<path d="M2.5 13.5H5.25001C5.66422 13.5 6 13.8358 6 14.25C6 14.6642 5.66422 15 5.25001 15H1.96873C1.43372 15 1 14.5663 1 14.0313V10.75C1 10.3358 1.3358 10 1.75001 10C2.16422 10 2.5 10.3358 2.5 10.75V13.5V13.5Z" fill="#DEE1F0"/>
<path d="M2.21968 12.7197L5.71966 9.21968C6.01256 8.92677 6.48744 8.92677 6.78032 9.21968C7.07323 9.51256 7.07323 9.98744 6.78032 10.2803L3.28034 13.7803C2.98744 14.0732 2.51256 14.0732 2.21968 13.7803C1.92677 13.4874 1.92677 13.0126 2.21968 12.7197V12.7197Z" fill="#DEE1F0"/>
</svg>
