<svg width="16" height="16" viewBox="0 0 16 16" fill="none" xmlns="http://www.w3.org/2000/svg">
<path d="M15 5.9C15 6.32 14.72 6.6 14.3 6.6C13.88 6.6 13.6 6.32 13.6 5.9V3.1C13.6 2.68 13.32 2.4 12.9 2.4H3.1C2.68 2.4 2.4 2.68 2.4 3.1V12.9C2.4 13.32 2.68 13.6 3.1 13.6H4.5C4.92 13.6 5.2 13.88 5.2 14.3C5.2 14.72 4.92 15 4.5 15H2.4C1.63 15 1 14.37 1 13.6V2.4C1 1.63 1.63 1 2.4 1H13.6C14.37 1 15 1.63 15 2.4V5.9Z" fill="#DEE1F0"/>
<path d="M14.791 8.228C14.525 7.924 14.125 7.924 13.859 8.228L9.59701 13.098L7.73201 10.968C7.46601 10.663 7.06601 10.663 6.80001 10.968C6.67129 11.1155 6.60037 11.3047 6.60037 11.5005C6.60037 11.6963 6.67129 11.8855 6.80001 12.033L9.13001 14.696C9.13001 14.696 9.13001 14.772 9.19701 14.772C9.46401 15.076 9.86301 15.076 10.129 14.772L14.858 9.37C15.058 8.99 15.058 8.533 14.791 8.228V8.228Z" fill="#DEE1F0"/>
</svg>
