<svg width="16" height="16" viewBox="0 0 16 16" fill="none" xmlns="http://www.w3.org/2000/svg">
<path d="M9.54869 10.3055C9.20146 10.1492 8.80215 10.3229 8.66326 10.6527C8.50701 11 8.68063 11.3993 9.01049 11.5381C9.82647 11.8854 10.3299 12.3715 10.3299 12.7882C10.3299 13.5521 8.61118 14.6285 5.83338 14.6285C3.05558 14.6285 1.33682 13.5694 1.33682 12.8055C1.33682 12.4062 1.77085 11.9722 2.51738 11.625C2.84725 11.4687 3.0035 11.0694 2.82988 10.7222C2.67363 10.3923 2.27432 10.2361 1.9271 10.4097C0.677089 11 0 11.8507 0 12.8055C0 14.6285 2.51738 16 5.85074 16C9.1841 16 11.7015 14.6285 11.7015 12.8055C11.6841 11.8159 10.9029 10.8958 9.54869 10.3055V10.3055Z" fill="#DEE1F0"/>
<path d="M15.5036 2.71868C15.4342 2.49298 15.2605 2.33673 15.0522 2.26729L7.27437 0.0276838C7.0834 -0.0244 6.89242 -0.00703873 6.71881 0.11449C6.56256 0.218658 6.44103 0.409631 6.42367 0.600605L6.16325 2.78812L5.76394 6.20829L5.64241 7.26733L5.05213 12.4063C5.01741 12.7708 5.27783 13.1181 5.64241 13.1528H5.71186C6.04172 13.1528 6.33686 12.8924 6.38895 12.5625L6.89242 8.17011L13.3334 9.59373C13.3855 9.6111 13.4376 9.6111 13.4723 9.6111C13.6459 9.6111 13.8369 9.54165 13.9585 9.40276C14.1147 9.22915 14.1841 8.98609 14.1147 8.76039L13.2987 5.73954L15.33 3.36104C15.521 3.17007 15.573 2.92701 15.5036 2.71868V2.71868ZM12.0834 5.11453C11.9445 5.28814 11.8925 5.51384 11.9445 5.72217L12.5522 8.01386L7.06604 6.79857L7.67368 1.53811L13.6633 3.25688L12.0834 5.11453Z" fill="#DEE1F0"/>
<path d="M14.8719 14.8124C14.596 15.0895 14.1476 15.0905 13.8705 14.8146L0.501796 1.50323C0.224664 1.22729 0.2237 0.778935 0.499643 0.501803V0.501803C0.775586 0.224672 1.22394 0.223708 1.50107 0.499651L14.8698 13.811C15.1469 14.0869 15.1479 14.5353 14.8719 14.8124V14.8124Z" fill="#DEE1F0"/>
<path d="M14.8719 14.8124C14.596 15.0895 14.1476 15.0905 13.8705 14.8146L0.501796 1.50323C0.224664 1.22729 0.2237 0.778935 0.499643 0.501803V0.501803C0.775586 0.224672 1.22394 0.223708 1.50107 0.499651L14.8698 13.811C15.1469 14.0869 15.1479 14.5353 14.8719 14.8124V14.8124Z" fill="#DEE1F0"/>
</svg>
