<svg width="16" height="16" viewBox="0 0 16 16" fill="none" xmlns="http://www.w3.org/2000/svg">
<path d="M0 11.7857C0 11.4955 0.100446 11.2444 0.301339 11.0324C0.502232 10.8203 0.758929 10.7143 1.07143 10.7143V9.64286C1.07143 9.0625 1.28348 8.56027 1.70759 8.13616C2.1317 7.71205 2.63393 7.5 3.21429 7.5H6.96429V5.35714H4.28571C3.97321 5.35714 3.71652 5.2567 3.51562 5.0558C3.31473 4.85491 3.21429 4.59821 3.21429 4.28571V1.07143C3.21429 0.78125 3.31473 0.530134 3.51562 0.31808C3.71652 0.106027 3.97321 0 4.28571 0H10.7143C11.0045 0 11.2556 0.106027 11.4676 0.31808C11.6797 0.530134 11.7857 0.78125 11.7857 1.07143V4.28571C11.7857 4.59821 11.6797 4.85491 11.4676 5.0558C11.2556 5.2567 11.0045 5.35714 10.7143 5.35714H8.03571V7.5H11.7857C12.3661 7.5 12.8683 7.71205 13.2924 8.13616C13.7165 8.56027 13.9286 9.0625 13.9286 9.64286V10.7143C14.2187 10.7143 14.4699 10.8203 14.6819 11.0324C14.894 11.2444 15 11.4955 15 11.7857V13.9286C15 14.2411 14.894 14.4978 14.6819 14.6987C14.4699 14.8996 14.2187 15 13.9286 15H11.7857C11.4732 15 11.2165 14.8996 11.0156 14.6987C10.8147 14.4978 10.7143 14.2411 10.7143 13.9286V11.7857C10.7143 11.4955 10.8147 11.2444 11.0156 11.0324C11.2165 10.8203 11.4732 10.7143 11.7857 10.7143H12.8571V9.64286C12.8571 9.35268 12.7567 9.10156 12.5558 8.88951C12.3549 8.67746 12.0982 8.57143 11.7857 8.57143H8.03571V10.7143H8.57143C8.86161 10.7143 9.11272 10.8203 9.32478 11.0324C9.53683 11.2444 9.64286 11.4955 9.64286 11.7857V13.9286C9.64286 14.2411 9.53683 14.4978 9.32478 14.6987C9.11272 14.8996 8.86161 15 8.57143 15H6.42857C6.11607 15 5.85937 14.8996 5.65848 14.6987C5.45759 14.4978 5.35714 14.2411 5.35714 13.9286V11.7857C5.35714 11.4955 5.45759 11.2444 5.65848 11.0324C5.85937 10.8203 6.11607 10.7143 6.42857 10.7143H6.96429V8.57143H3.21429C2.90179 8.57143 2.64509 8.67746 2.4442 8.88951C2.2433 9.10156 2.14286 9.35268 2.14286 9.64286V10.7143H3.21429C3.50446 10.7143 3.75558 10.8203 3.96763 11.0324C4.17969 11.2444 4.28571 11.4955 4.28571 11.7857V13.9286C4.28571 14.2411 4.17969 14.4978 3.96763 14.6987C3.75558 14.8996 3.50446 15 3.21429 15H1.07143C0.758929 15 0.502232 14.8996 0.301339 14.6987C0.100446 14.4978 0 14.2411 0 13.9286V11.7857ZM10.7143 4.28571V1.07143H4.28571V4.28571H10.7143ZM6.42857 13.9286H8.57143V11.7857H6.42857V13.9286ZM13.9286 13.9286V11.7857H11.7857V13.9286H13.9286ZM1.07143 11.7857V13.9286H3.21429V11.7857H1.07143Z" fill="#DEE1F0"/>
<path d="M15.4683 15.4063C15.1924 15.6834 14.744 15.6844 14.4669 15.4084L0.501786 1.50325C0.224655 1.22731 0.223689 0.77895 0.499632 0.501818V0.501818C0.775575 0.224687 1.22393 0.223723 1.50106 0.499666L15.4662 14.4049C15.7433 14.6808 15.7443 15.1292 15.4683 15.4063V15.4063Z" fill="#DEE1F0"/>
</svg>
