<svg width="16" height="16" viewBox="0 0 48 48" fill="none" xmlns="http://www.w3.org/2000/svg">
<g clip-path="url(#clip0)">
<path d="M44.0317 36.337L38.1617 30.4981C37.6377 29.9761 36.6414 29.9119 36.3577 30.5913C36.281 30.7735 36.2624 31.2872 36.2624 31.2872V35.233H16.3907C15.1224 35.2352 13.9051 34.7342 13.0058 33.8399C12.1064 32.9456 11.5986 31.7311 11.5937 30.4629C11.5981 29.1942 12.1057 27.9792 13.005 27.0845C13.9044 26.1898 15.1221 25.6885 16.3907 25.6907H34.4148C39.332 25.6907 43.3316 21.7138 43.3316 16.8236C43.3316 11.9334 39.332 7.95446 34.4148 7.95446H16.7739C16.3271 6.51855 15.4328 5.26317 14.2217 4.37178C13.0106 3.48039 11.5461 2.99971 10.0423 3C6.1566 3 3 6.1421 3 10.0029C3 13.8658 6.15867 17.0059 10.0423 17.0059C11.5461 17.0062 13.0106 16.5255 14.2217 15.6341C15.4328 14.7427 16.3271 13.4873 16.7739 12.0514H34.4148C35.6834 12.0492 36.9011 12.5505 37.8005 13.4452C38.6999 14.3399 39.2075 15.555 39.2119 16.8236C39.2069 18.0919 38.6991 19.3064 37.7998 20.2006C36.9004 21.0949 35.6831 21.5959 34.4148 21.5937H16.3907C11.4735 21.5937 7.47392 25.5705 7.47392 30.4629C7.47392 35.351 11.4715 39.3299 16.3907 39.3299H36.2624V43.0748C36.2624 43.0748 36.2624 43.6485 36.3577 43.8763C36.6414 44.5578 37.6377 44.5868 38.1597 44.0628L44.0317 38.2259C44.1564 38.1023 44.2555 37.9552 44.323 37.7931C44.3906 37.631 44.4254 37.4571 44.4254 37.2814C44.4254 37.1058 44.3906 36.9319 44.323 36.7698C44.2555 36.6077 44.1564 36.4606 44.0317 36.337ZM10.0423 12.9089C8.43085 12.9089 7.12181 11.604 7.12181 10.0029C7.12181 8.40185 8.42878 7.1011 10.0423 7.1011C11.6517 7.1011 12.9628 8.40392 12.9628 10.005C12.9628 11.6082 11.6517 12.911 10.0423 12.911V12.9089Z" fill="#DEE1F0"/>
<rect x="-1" y="2.95752" width="4" height="60.3091" rx="2" transform="rotate(-47.6786 -1 2.95752)" fill="#DEE1F0"/>
</g>
<defs>
<clipPath id="clip0">
<rect width="48" height="48" fill="white"/>
</clipPath>
</defs>
</svg>
