<svg t="1612837017096" class="icon" viewBox="0 0 1024 1024" version="1.1" xmlns="http://www.w3.org/2000/svg" p-id="17544" width="22" height="22"><path d="M543.711 80.574l325.712 188.05a64 64 0 0 1 32 55.426v376.099a64 64 0 0 1-32 55.425L543.71 943.624a64 64 0 0 1-64 0L154 755.574a64 64 0 0 1-32-55.425v-376.1a64 64 0 0 1 32-55.425l325.711-188.05a64 64 0 0 1 64 0z m-32 60.044L190 326.358V697.84l321.712 185.74 321.711-185.74V326.36l-321.71-185.74z m0 211.481c88.366 0 160 71.635 160 160 0 88.366-71.634 160-160 160-88.365 0-160-71.634-160-160 0-88.365 71.635-160 160-160z m0 64c-53.019 0-96 42.98-96 96s42.981 96 96 96c53.02 0 96-42.98 96-96s-42.98-96-96-96z" p-id="17545" fill="#dee1f0"></path></svg>
