<svg width="16" height="16" viewBox="0 0 16 16" fill="none" xmlns="http://www.w3.org/2000/svg">
<g clip-path="url(#clip0)">
<path d="M15 0H3.74C3.47478 0 3.22043 0.105357 3.03289 0.292893C2.84536 0.48043 2.74 0.734784 2.74 1V2.17H1C0.734784 2.17 0.48043 2.27536 0.292893 2.46289C0.105357 2.65043 0 2.90478 0 3.17L0 15C0 15.2652 0.105357 15.5196 0.292893 15.7071C0.48043 15.8946 0.734784 16 1 16H12.26C12.5252 16 12.7796 15.8946 12.9671 15.7071C13.1546 15.5196 13.26 15.2652 13.26 15V13.83H15C15.2652 13.83 15.5196 13.7246 15.7071 13.5371C15.8946 13.3496 16 13.0952 16 12.83V1C16 0.734784 15.8946 0.48043 15.7071 0.292893C15.5196 0.105357 15.2652 0 15 0V0ZM12.26 15H1V3.18H12.26V15ZM15 12.83H13.26V3.18C13.26 2.91478 13.1546 2.66043 12.9671 2.47289C12.7796 2.28536 12.5252 2.18 12.26 2.18H3.74V1H15V12.83Z" fill="#DEE1F0"/>
<path d="M6.50999 8.73L3.82999 6.05C3.73716 5.95718 3.61127 5.90503 3.47999 5.90503C3.34872 5.90503 3.22282 5.95718 3.12999 6.05C3.03717 6.14283 2.98502 6.26873 2.98502 6.4C2.98502 6.53128 3.03717 6.65718 3.12999 6.75L5.44999 9.09L3.12999 11.42C3.04735 11.5151 3.00364 11.6378 3.00759 11.7637C3.01153 11.8896 3.06285 12.0094 3.15129 12.0991C3.23972 12.1888 3.35875 12.2418 3.48458 12.2475C3.61041 12.2533 3.73377 12.2113 3.82999 12.13L6.50999 9.44C6.60053 9.34607 6.65077 9.22047 6.64999 9.09C6.65128 8.95648 6.60115 8.82758 6.50999 8.73V8.73Z" fill="#DEE1F0"/>
<path d="M7.46 6.05C7.41352 6.00313 7.35822 5.96594 7.29729 5.94055C7.23636 5.91517 7.17101 5.9021 7.105 5.9021C7.03899 5.9021 6.97364 5.91517 6.91271 5.94055C6.85178 5.96594 6.79648 6.00313 6.75 6.05C6.70217 6.09489 6.66405 6.14911 6.63799 6.2093C6.61193 6.2695 6.59848 6.3344 6.59848 6.4C6.59848 6.4656 6.61193 6.5305 6.63799 6.59069C6.66405 6.65089 6.70217 6.70511 6.75 6.75L9.07 9.09L6.75 11.42C6.70313 11.4665 6.66594 11.5218 6.64055 11.5827C6.61517 11.6436 6.6021 11.709 6.6021 11.775C6.6021 11.841 6.61517 11.9064 6.64055 11.9673C6.66594 12.0282 6.70313 12.0835 6.75 12.13C6.84631 12.22 6.9732 12.27 7.105 12.27C7.2368 12.27 7.36369 12.22 7.46 12.13L10.13 9.44C10.2233 9.34707 10.2771 9.22166 10.28 9.09C10.2776 8.9553 10.2239 8.82657 10.13 8.73L7.46 6.05Z" fill="#DEE1F0"/>
</g>
<defs>
<clipPath id="clip0">
<rect width="16" height="16" fill="white"/>
</clipPath>
</defs>
</svg>
