<?xml version="1.0" standalone="no"?><!DOCTYPE svg PUBLIC "-//W3C//DTD SVG 1.1//EN" "http://www.w3.org/Graphics/SVG/1.1/DTD/svg11.dtd"><svg t="1612780147382" class="icon" viewBox="0 0 1024 1024" version="1.1" xmlns="http://www.w3.org/2000/svg" p-id="17876" xmlns:xlink="http://www.w3.org/1999/xlink" width="16" height="16"><defs><style type="text/css"></style></defs><path d="M945.47355117 781.31919413l-125.22569256-124.56288897c-11.17928731-11.13510039-32.43318926-12.50489449-38.48679541 1.98841079-1.63491553 3.88844775-2.0325977 14.84680053-2.0325977 14.84680053v84.17605657h-423.9291794a102.16012746 102.16012746 0 0 1-102.33687508-101.7624453 102.16012746 102.16012746 0 0 1 102.33687508-101.8066322h384.51445895c104.89971564 0 190.22463179-84.83886017 190.22463177-189.16414604 0-104.32528587-85.32491615-189.20833294-190.22463177-189.20833292H363.97386377A150.36804227 150.36804227 0 0 0 220.36641817 70.13093663C137.47178189 70.13093663 70.13093663 137.16247353 70.13093663 219.52686695c0 82.40858032 67.38503216 149.39593033 150.23548154 149.39593033a150.36804227 150.36804227 0 0 0 143.6074456-105.69507997h376.33988128a102.16012746 102.16012746 0 0 1 102.33687507 101.8066322 102.16012746 102.16012746 0 0 1-102.33687507 101.76244532h-384.51445895c-104.89971564 0-190.22463179 84.83886017-190.22463179 189.20833292 0 104.28109895 85.28072923 189.16414603 190.22463179 189.16414603h423.9291794v79.88992667s0 12.23977305 2.0325977 17.10033274c6.05360618 14.53749219 27.30750811 15.15610887 38.4426085 3.97682157l125.26987947-124.51870205a28.36799387 28.36799387 0 0 0 0-40.29845858zM220.36641817 281.52109653c-34.37741312 0-62.30353794-27.83775099-62.30353794-61.99422958S185.94481814 157.62101117 220.36641817 157.62101117c34.33322622 0 62.30353794 27.79356409 62.30353794 61.95004269 0 34.2006655-27.97031171 61.99422959-62.30353794 61.9942296z" fill="#DEE1F0" p-id="17877"></path></svg>
