<svg width="16" height="16" viewBox="0 0 16 16" fill="none" xmlns="http://www.w3.org/2000/svg">
<path d="M0 12.5714C0 12.2619 0.107143 11.994 0.321429 11.7679C0.535714 11.5417 0.809524 11.4286 1.14286 11.4286V10.2857C1.14286 9.66667 1.36905 9.13095 1.82143 8.67857C2.27381 8.22619 2.80952 8 3.42857 8H7.42857V5.71429H4.57143C4.2381 5.71429 3.96429 5.60714 3.75 5.39286C3.53571 5.17857 3.42857 4.90476 3.42857 4.57143V1.14286C3.42857 0.833333 3.53571 0.565476 3.75 0.339286C3.96429 0.113095 4.2381 0 4.57143 0H11.4286C11.7381 0 12.006 0.113095 12.2321 0.339286C12.4583 0.565476 12.5714 0.833333 12.5714 1.14286V4.57143C12.5714 4.90476 12.4583 5.17857 12.2321 5.39286C12.006 5.60714 11.7381 5.71429 11.4286 5.71429H8.57143V8H12.5714C13.1905 8 13.7262 8.22619 14.1786 8.67857C14.631 9.13095 14.8571 9.66667 14.8571 10.2857V11.4286C15.1667 11.4286 15.4345 11.5417 15.6607 11.7679C15.8869 11.994 16 12.2619 16 12.5714V14.8571C16 15.1905 15.8869 15.4643 15.6607 15.6786C15.4345 15.8929 15.1667 16 14.8571 16H12.5714C12.2381 16 11.9643 15.8929 11.75 15.6786C11.5357 15.4643 11.4286 15.1905 11.4286 14.8571V12.5714C11.4286 12.2619 11.5357 11.994 11.75 11.7679C11.9643 11.5417 12.2381 11.4286 12.5714 11.4286H13.7143V10.2857C13.7143 9.97619 13.6071 9.70833 13.3929 9.48214C13.1786 9.25595 12.9048 9.14286 12.5714 9.14286H8.57143V11.4286H9.14286C9.45238 11.4286 9.72024 11.5417 9.94643 11.7679C10.1726 11.994 10.2857 12.2619 10.2857 12.5714V14.8571C10.2857 15.1905 10.1726 15.4643 9.94643 15.6786C9.72024 15.8929 9.45238 16 9.14286 16H6.85714C6.52381 16 6.25 15.8929 6.03571 15.6786C5.82143 15.4643 5.71429 15.1905 5.71429 14.8571V12.5714C5.71429 12.2619 5.82143 11.994 6.03571 11.7679C6.25 11.5417 6.52381 11.4286 6.85714 11.4286H7.42857V9.14286H3.42857C3.09524 9.14286 2.82143 9.25595 2.60714 9.48214C2.39286 9.70833 2.28571 9.97619 2.28571 10.2857V11.4286H3.42857C3.7381 11.4286 4.00595 11.5417 4.23214 11.7679C4.45833 11.994 4.57143 12.2619 4.57143 12.5714V14.8571C4.57143 15.1905 4.45833 15.4643 4.23214 15.6786C4.00595 15.8929 3.7381 16 3.42857 16H1.14286C0.809524 16 0.535714 15.8929 0.321429 15.6786C0.107143 15.4643 0 15.1905 0 14.8571V12.5714ZM11.4286 4.57143V1.14286H4.57143V4.57143H11.4286ZM6.85714 14.8571H9.14286V12.5714H6.85714V14.8571ZM14.8571 14.8571V12.5714H12.5714V14.8571H14.8571ZM1.14286 12.5714V14.8571H3.42857V12.5714H1.14286Z" fill="#DEE1F0"/>
</svg>
