<svg width="16" height="16" viewBox="0 0 16 16" fill="none" xmlns="http://www.w3.org/2000/svg">
<g clip-path="url(#clip0)">
<path d="M10.9336 12.3553C10.0438 13.0033 9.00317 13.3284 7.93944 13.3136C7.79969 13.312 7.66007 13.3046 7.52093 13.2916C7.46447 13.2862 7.40803 13.2767 7.35158 13.2696C7.2429 13.2542 7.13392 13.2393 7.02823 13.2179C6.96248 13.2048 6.89853 13.1876 6.83458 13.1721C6.7307 13.1465 6.62773 13.121 6.52623 13.0901C6.47762 13.074 6.42986 13.0562 6.38183 13.039C6.26504 12.9986 6.14856 12.9563 6.03537 12.907C6.00953 12.8963 5.98493 12.8838 5.95941 12.8719C5.82731 12.8113 5.6964 12.7477 5.57 12.6764C5.564 12.6734 5.5589 12.6704 5.55261 12.6668C5.12476 12.4225 4.73296 12.117 4.38949 11.7603C4.38387 11.7543 4.37837 11.7481 4.373 11.7419C4.26568 11.6302 4.16378 11.5136 4.06765 11.3923C4.04723 11.3668 4.02772 11.3388 4.00731 11.3121C3.30837 10.4025 2.88656 9.25108 2.88656 7.99797H4.07246C4.10308 7.99797 4.1325 7.98133 4.14812 7.95159C4.16375 7.92187 4.16103 7.88739 4.14421 7.86064L2.15128 4.75042C2.13566 4.72605 2.10924 4.71058 2.07924 4.71058C2.0492 4.71058 2.02278 4.72664 2.00719 4.75042L0.0142439 7.86063C0.00565134 7.87414 0.000770469 7.88964 8.39812e-05 7.90559C-0.000602506 7.92154 0.00292918 7.93739 0.0103297 7.95158C0.0259547 7.98131 0.0553739 7.99795 0.0860083 7.99795H1.27191C1.27191 9.471 1.71325 10.8359 2.46323 11.9648C2.47223 11.9802 2.47886 11.9969 2.48904 12.0129C2.5665 12.1282 2.65297 12.2347 2.73613 12.344C2.76707 12.385 2.79617 12.4278 2.82862 12.4683C2.95109 12.6234 3.08141 12.7685 3.21561 12.9111C3.22851 12.9254 3.24022 12.9391 3.25283 12.9516C3.70258 13.4206 4.21146 13.8153 4.76509 14.131C4.7792 14.1399 4.79363 14.1494 4.80922 14.1577C4.96864 14.2463 5.13256 14.3271 5.29858 14.4032C5.34003 14.4217 5.38026 14.4425 5.42259 14.4609C5.56428 14.5221 5.7102 14.5756 5.85731 14.6268C5.92697 14.6518 5.99571 14.6767 6.06627 14.6993C6.19476 14.7385 6.32596 14.7718 6.45866 14.8045C6.54634 14.8259 6.63341 14.8485 6.72287 14.8663C6.76012 14.874 6.79523 14.886 6.83156 14.8919C6.95615 14.9151 7.08196 14.9281 7.20685 14.9436C7.25189 14.9489 7.29632 14.9573 7.34135 14.962C7.56594 14.9852 7.78958 15.0001 8.01296 15.0001C9.38084 15.0001 10.715 14.5649 11.8595 13.7309C12.2246 13.4646 12.3135 12.9415 12.0577 12.561C11.8019 12.1806 11.2981 12.0884 10.9336 12.3553V12.3553ZM14.7286 7.99795C14.728 6.52963 14.289 5.16716 13.5433 4.04064C13.5324 4.02161 13.5252 4.002 13.5126 3.98416C13.4201 3.84623 13.3187 3.71784 13.2178 3.58944C13.2064 3.57397 13.1956 3.55734 13.1836 3.54189C12.5008 2.67992 11.6434 2.01413 10.6718 1.57898C10.6454 1.56711 10.619 1.55342 10.5914 1.54153C10.4364 1.47497 10.2779 1.41611 10.1182 1.36083C10.0606 1.34122 10.0041 1.31922 9.94528 1.30139C9.80598 1.25739 9.66425 1.22173 9.52255 1.18784C9.44329 1.16881 9.36523 1.14802 9.28537 1.13197C9.24633 1.12362 9.20912 1.11177 9.17009 1.10462C9.06381 1.08559 8.95693 1.07728 8.85064 1.06242C8.77678 1.05291 8.70473 1.04102 8.63025 1.0333C8.45131 1.01605 8.27388 1.00892 8.09675 1.00534C8.06401 1.00534 8.03279 1 8.00038 1C7.99466 1 7.98925 1.00178 7.98325 1.00238C6.61722 1.00355 5.28597 1.43275 4.14271 2.26558C3.77672 2.53131 3.68785 3.05502 3.94366 3.43548C4.19917 3.81594 4.70324 3.90808 5.06831 3.64117C5.95131 2.99797 6.98139 2.67219 8.03789 2.6823C8.18982 2.68348 8.33963 2.6912 8.48736 2.70548C8.53298 2.71083 8.57801 2.71797 8.62304 2.72392C8.74495 2.73937 8.86564 2.7572 8.98393 2.78158C9.03617 2.79228 9.08841 2.80595 9.13944 2.81845C9.25593 2.8458 9.37242 2.87491 9.48652 2.91059C9.52255 2.92247 9.55738 2.93616 9.5934 2.94803C9.72309 2.99262 9.85161 3.04017 9.97709 3.09428C9.98969 3.10022 10.0029 3.10675 10.0149 3.11209C10.7679 3.44916 11.4278 3.96694 11.9424 4.61608C11.946 4.61964 11.9496 4.62498 11.952 4.62856C12.6774 5.54641 13.1133 6.71986 13.1139 7.99794H11.928C11.8968 7.99794 11.8674 8.01459 11.8518 8.0443C11.8446 8.05855 11.8412 8.07439 11.8419 8.09031C11.8426 8.10623 11.8475 8.12169 11.856 8.13523L13.8495 11.2455C13.8651 11.2693 13.8915 11.2853 13.9216 11.2853C13.9516 11.2853 13.978 11.2693 13.9936 11.2455L15.9859 8.13525C16.0027 8.1085 16.0051 8.07403 15.9895 8.04431C15.9739 8.01459 15.9445 7.99794 15.9139 7.99794H14.7286L14.7286 7.99795Z" fill="#DEE1F0"/>
</g>
<defs>
<clipPath id="clip0">
<rect width="16" height="16" fill="white"/>
</clipPath>
</defs>
</svg>
