<svg width="16" height="16" viewBox="0 0 16 16" fill="none" xmlns="http://www.w3.org/2000/svg">
<path d="M14.6407 13.8426L12.5187 11.7213C13.4433 10.5347 14 9.04799 14 7.43066C14 3.57066 10.8597 0.430664 7 0.430664C3.14 0.430664 0 3.57066 0 7.43066C0 11.2903 3.14 14.4307 7 14.4307C8.615 14.4307 10.1 13.8757 11.2853 12.953L13.4077 15.0753C13.7503 15.4177 14.304 15.4193 14.6443 15.0793C14.9847 14.7387 14.9827 14.1857 14.6407 13.8427V13.8426ZM1.33333 7.43065C1.33333 4.30598 3.87533 1.76398 7 1.76398C10.1247 1.76398 12.6667 4.30598 12.6667 7.43065C12.6667 10.5553 10.1247 13.0973 7 13.0973C3.87533 13.0973 1.33333 10.5553 1.33333 7.43065Z" fill="#DEE1F0"/>
<path d="M4 7.75C4 7.33579 4.33579 7 4.75 7H9.25C9.66421 7 10 7.33579 10 7.75C10 8.16421 9.66421 8.5 9.25 8.5H4.75C4.33579 8.5 4 8.16421 4 7.75Z" fill="#DEE1F0"/>
</svg>
