<?xml version="1.0" standalone="no"?><!DOCTYPE svg PUBLIC "-//W3C//DTD SVG 1.1//EN" "http://www.w3.org/Graphics/SVG/1.1/DTD/svg11.dtd"><svg t="1611656922421" class="icon" viewBox="0 0 1024 1024" version="1.1" xmlns="http://www.w3.org/2000/svg" p-id="4845" width="16" height="16" xmlns:xlink="http://www.w3.org/1999/xlink"><defs><style type="text/css"></style></defs><path d="M303.36 704h79.431111V618.666667H303.36C218.453333 618.666667 149.333333 545.848889 149.333333 456.391111s68.764444-161.991111 153.457778-162.346667h5.12a85.333333 85.333333 0 0 0 79.431111-54.257777A138.524444 138.524444 0 0 1 515.555556 149.333333c68.408889 0 127.431111 53.831111 137.173333 125.155556A85.333333 85.333333 0 0 0 737.208889 348.444444h9.528889c70.542222 0 128 60.728889 128 135.111112s-57.386667 135.111111-128 135.111111H640v85.333333h106.666667c117.831111 0 213.333333-98.773333 213.333333-220.444444s-95.502222-220.444444-213.333333-220.444445h-9.386667C721.848889 150.471111 628.48 64 515.555556 64a224.213333 224.213333 0 0 0-207.644445 144.853333h-4.48C171.164444 208.711111 64 319.573333 64 456.391111S171.164444 704 303.36 704z" p-id="4846" fill="#11bea4"></path><path d="M867.555556 773.475556a92.444444 92.444444 0 0 0-85.902223 58.524444h-179.2a96.142222 96.142222 0 0 0-47.786666-53.902222L555.875556 704l-0.64-177.777778A92.444444 92.444444 0 1 0 469.333333 526.222222v251.662222a96.142222 96.142222 0 0 0-47.786666 54.115556h-179.2a92.444444 92.444444 0 1 0-1.351111 71.111111h183.395555a95.928889 95.928889 0 0 0 175.217778 0h183.324444a92.444444 92.444444 0 1 0 84.622223-129.635555z" p-id="4847" fill="#11bea4"></path></svg>