<svg width="16" height="16" viewBox="0 0 16 16" fill="none" xmlns="http://www.w3.org/2000/svg">
<path d="M14.5474 3.51784H1.59712C1.30034 3.51784 1.06651 3.24804 1.06651 2.91529C1.06651 2.58254 1.30933 2.31274 1.59712 2.31274H14.5474C14.8442 2.31274 15.078 2.58254 15.078 2.91529C15.078 3.25704 14.8442 3.51784 14.5474 3.51784V3.51784ZM7.44274 7.14213H1.59712C1.30034 7.14213 1.06651 6.87233 1.06651 6.53958C1.06651 6.20683 1.30933 5.93703 1.59712 5.93703H7.44274C7.73952 5.93703 7.97334 6.20683 7.97334 6.53958C7.97334 6.87233 7.73952 7.14213 7.44274 7.14213ZM7.44274 10.8024H1.59712C1.30034 10.8024 1.06651 10.5326 1.06651 10.1998C1.06651 9.86709 1.30933 9.59729 1.59712 9.59729H7.44274C7.73952 9.59729 7.97334 9.86709 7.97334 10.1998C7.97334 10.5326 7.73952 10.8024 7.44274 10.8024ZM7.44274 14.4626H1.59712C1.30034 14.4626 1.06651 14.1928 1.06651 13.8601C1.06651 13.5273 1.30933 13.2575 1.59712 13.2575H7.44274C7.73952 13.2575 7.97334 13.5273 7.97334 13.8601C7.97334 14.1928 7.73952 14.4626 7.44274 14.4626ZM8.62086 10.5236L11.8494 14.4537L15.078 10.5236H12.425V5.14562C12.425 4.83985 12.1732 4.58804 11.8674 4.58804H11.8225C11.5167 4.58804 11.2649 4.83985 11.2649 5.14562V10.5236H8.62086V10.5236Z" fill="#C3C6C9"/>
</svg>
