<svg width="18" height="18" viewBox="0 0 18 18" fill="none" xmlns="http://www.w3.org/2000/svg">
<path d="M16.0312 3.375H5.76562C5.68828 3.375 5.625 3.43828 5.625 3.51562V4.5C5.625 4.57734 5.68828 4.64062 5.76562 4.64062H16.0312C16.1086 4.64062 16.1719 4.57734 16.1719 4.5V3.51562C16.1719 3.43828 16.1086 3.375 16.0312 3.375ZM16.0312 8.36719H5.76562C5.68828 8.36719 5.625 8.43047 5.625 8.50781V9.49219C5.625 9.56953 5.68828 9.63281 5.76562 9.63281H16.0312C16.1086 9.63281 16.1719 9.56953 16.1719 9.49219V8.50781C16.1719 8.43047 16.1086 8.36719 16.0312 8.36719ZM16.0312 13.3594H5.76562C5.68828 13.3594 5.625 13.4227 5.625 13.5V14.4844C5.625 14.5617 5.68828 14.625 5.76562 14.625H16.0312C16.1086 14.625 16.1719 14.5617 16.1719 14.4844V13.5C16.1719 13.4227 16.1086 13.3594 16.0312 13.3594Z" fill="#DEE1F0"/>
<path d="M1.82812 4.00781C1.82812 4.13708 1.85359 4.26509 1.90306 4.38452C1.95253 4.50395 2.02503 4.61246 2.11644 4.70387C2.20785 4.79528 2.31637 4.86779 2.4358 4.91726C2.55523 4.96673 2.68323 4.99219 2.8125 4.99219C2.94177 4.99219 3.06977 4.96673 3.1892 4.91726C3.30863 4.86779 3.41715 4.79528 3.50856 4.70387C3.59997 4.61246 3.67247 4.50395 3.72194 4.38452C3.77141 4.26509 3.79688 4.13708 3.79688 4.00781C3.79688 3.87854 3.77141 3.75054 3.72194 3.63111C3.67247 3.51168 3.59997 3.40316 3.50856 3.31175C3.41715 3.22035 3.30863 3.14784 3.1892 3.09837C3.06977 3.0489 2.94177 3.02344 2.8125 3.02344C2.68323 3.02344 2.55523 3.0489 2.4358 3.09837C2.31637 3.14784 2.20785 3.22035 2.11644 3.31175C2.02503 3.40316 1.95253 3.51168 1.90306 3.63111C1.85359 3.75054 1.82812 3.87854 1.82812 4.00781V4.00781Z" fill="#DEE1F0"/>
<path d="M1.82812 9C1.82812 9.12927 1.85359 9.25727 1.90306 9.3767C1.95253 9.49613 2.02503 9.60465 2.11644 9.69606C2.20785 9.78747 2.31637 9.85997 2.4358 9.90944C2.55523 9.95891 2.68323 9.98438 2.8125 9.98438C2.94177 9.98438 3.06977 9.95891 3.1892 9.90944C3.30863 9.85997 3.41715 9.78747 3.50856 9.69606C3.59997 9.60465 3.67247 9.49613 3.72194 9.3767C3.77141 9.25727 3.79688 9.12927 3.79688 9C3.79688 8.87073 3.77141 8.74273 3.72194 8.6233C3.67247 8.50387 3.59997 8.39535 3.50856 8.30394C3.41715 8.21253 3.30863 8.14003 3.1892 8.09056C3.06977 8.04109 2.94177 8.01562 2.8125 8.01562C2.68323 8.01562 2.55523 8.04109 2.4358 8.09056C2.31637 8.14003 2.20785 8.21253 2.11644 8.30394C2.02503 8.39535 1.95253 8.50387 1.90306 8.6233C1.85359 8.74273 1.82812 8.87073 1.82812 9V9Z" fill="#DEE1F0"/>
<path d="M1.82812 13.9922C1.82812 14.1215 1.85359 14.2495 1.90306 14.3689C1.95253 14.4883 2.02503 14.5968 2.11644 14.6882C2.20785 14.7797 2.31637 14.8522 2.4358 14.9016C2.55523 14.9511 2.68323 14.9766 2.8125 14.9766C2.94177 14.9766 3.06977 14.9511 3.1892 14.9016C3.30863 14.8522 3.41715 14.7797 3.50856 14.6882C3.59997 14.5968 3.67247 14.4883 3.72194 14.3689C3.77141 14.2495 3.79688 14.1215 3.79688 13.9922C3.79688 13.8629 3.77141 13.7349 3.72194 13.6155C3.67247 13.4961 3.59997 13.3875 3.50856 13.2961C3.41715 13.2047 3.30863 13.1322 3.1892 13.0827C3.06977 13.0333 2.94177 13.0078 2.8125 13.0078C2.68323 13.0078 2.55523 13.0333 2.4358 13.0827C2.31637 13.1322 2.20785 13.2047 2.11644 13.2961C2.02503 13.3875 1.95253 13.4961 1.90306 13.6155C1.85359 13.7349 1.82812 13.8629 1.82812 13.9922V13.9922Z" fill="#DEE1F0"/>
</svg>
