<svg width="15" height="15" viewBox="0 0 15 15" fill="none" xmlns="http://www.w3.org/2000/svg">
<g clip-path="url(#clip0)">
<path d="M4.65897 0.000384257C5.22521 0.000384257 5.69957 0.195379 6.07925 0.586306C6.4608 0.977234 6.65111 1.44597 6.65111 1.99252V4.6587C6.65111 5.22493 6.4608 5.6993 6.07925 6.07897C5.69863 6.46053 5.22521 6.65083 4.65897 6.65083H1.99279C1.73201 6.6548 1.4731 6.60621 1.23151 6.50796C0.989912 6.40971 0.770575 6.26382 0.586578 6.07897C0.39573 5.89603 0.24507 5.67536 0.144193 5.43099C0.0433162 5.18663 -0.00556718 4.92393 0.000656318 4.65964V1.99252C0.000656318 1.44597 0.195651 0.977234 0.586578 0.586306C0.768525 0.397777 0.987168 0.248524 1.22902 0.147752C1.47087 0.0469795 1.73081 -0.00317409 1.99279 0.000384257H4.65897ZM5.44926 1.99252C5.45033 1.88861 5.43008 1.78559 5.38977 1.68981C5.34946 1.59403 5.28994 1.50754 5.21489 1.43566C5.14313 1.36073 5.05678 1.30128 4.96117 1.26097C4.86557 1.22067 4.76272 1.20036 4.65897 1.20129H1.99279C1.88888 1.20023 1.78586 1.22048 1.69008 1.26079C1.5943 1.3011 1.50781 1.36061 1.43593 1.43566C1.36088 1.50754 1.30137 1.59403 1.26106 1.68981C1.22075 1.78559 1.2005 1.88861 1.20156 1.99252V4.6587C1.20156 4.87338 1.28031 5.059 1.43593 5.21462C1.59249 5.37118 1.77811 5.44899 1.99279 5.44899H4.65897C4.76276 5.45015 4.86567 5.42994 4.96131 5.38962C5.05694 5.3493 5.14326 5.28973 5.21489 5.21462C5.28983 5.14285 5.34927 5.05651 5.38958 4.9609C5.42989 4.8653 5.4502 4.76245 5.44926 4.6587V1.99252ZM13.0091 0.000384257C13.5556 0.000384257 14.0244 0.195379 14.4153 0.586306C14.8062 0.977234 15.0012 1.44597 15.0012 1.99252V4.6587C15.0012 5.22493 14.8062 5.6993 14.4153 6.07897C14.2313 6.2639 14.012 6.40986 13.7704 6.50811C13.5288 6.60637 13.2699 6.65491 13.0091 6.65083H10.3429C9.77665 6.65083 9.30229 6.46053 8.92261 6.07897C8.73537 5.89383 8.58804 5.67229 8.48968 5.42802C8.39133 5.18376 8.34405 4.92194 8.35075 4.6587V1.99252C8.35075 1.44597 8.54106 0.977234 8.92261 0.586306C9.10544 0.395576 9.32597 0.244985 9.57016 0.144112C9.81436 0.0432388 10.0769 -0.00570824 10.341 0.000384257H13.0072H13.0091ZM13.8003 1.99252C13.8014 1.88861 13.7811 1.78559 13.7408 1.68981C13.7005 1.59403 13.641 1.50754 13.5659 1.43566C13.494 1.36061 13.4076 1.3011 13.3118 1.26079C13.216 1.22048 13.113 1.20023 13.0091 1.20129H10.3429C10.239 1.20023 10.136 1.22048 10.0402 1.26079C9.9444 1.3011 9.8579 1.36061 9.78602 1.43566C9.71098 1.50754 9.65146 1.59403 9.61115 1.68981C9.57084 1.78559 9.55059 1.88861 9.55166 1.99252V4.6587C9.55166 4.87338 9.6304 5.059 9.78602 5.21462C9.94258 5.37118 10.1282 5.44899 10.3429 5.44899H13.0091C13.113 5.45011 13.216 5.42989 13.3118 5.38957C13.4076 5.34926 13.4941 5.28971 13.5659 5.21462C13.6409 5.14285 13.7003 5.05651 13.7406 4.9609C13.7809 4.8653 13.8012 4.76245 13.8003 4.6587V1.99252ZM4.65991 8.32048C5.22614 8.32048 5.70051 8.51547 6.08018 8.9064C6.46174 9.29733 6.65204 9.76607 6.65204 10.3126V12.9788C6.65204 13.545 6.46174 14.0194 6.08018 14.3991C5.69957 14.7806 5.22614 14.9709 4.65991 14.9709H1.99279C1.73201 14.9749 1.4731 14.9263 1.23151 14.8281C0.989912 14.7298 0.770575 14.5839 0.586578 14.3991C0.395612 14.216 0.244883 13.9952 0.144002 13.7507C0.0431213 13.5061 -0.00569828 13.2432 0.000656318 12.9788V10.3126C0.000656318 9.76607 0.195651 9.29733 0.586578 8.9064C0.768525 8.71787 0.987168 8.56862 1.22902 8.46785C1.47087 8.36707 1.73081 8.31692 1.99279 8.32048H4.65897H4.65991ZM5.4502 10.3417C5.45073 10.1276 5.36647 9.92197 5.21583 9.76982C5.14615 9.69128 5.06052 9.6285 4.96466 9.58566C4.8688 9.54282 4.76491 9.52091 4.65991 9.52138H1.99279C1.88757 9.52089 1.78345 9.54289 1.68741 9.58589C1.59138 9.6289 1.50564 9.69193 1.43593 9.77075C1.2853 9.92291 1.20103 10.1285 1.20156 10.3426V13.0079C1.20156 13.2235 1.28031 13.4082 1.43593 13.5647C1.59249 13.7203 1.77811 13.7991 1.99279 13.7991H4.65897C4.76272 13.8 4.86557 13.7797 4.96117 13.7394C5.05678 13.6991 5.14313 13.6396 5.21489 13.5647C5.28994 13.4928 5.34946 13.4063 5.38977 13.3106C5.43008 13.2148 5.45033 13.1118 5.44926 13.0079V10.3417H5.4502ZM13.0091 8.32048C13.5556 8.32048 14.0244 8.51547 14.4153 8.9064C14.8062 9.29733 15.0012 9.76607 15.0012 10.3126V12.9788C15.0012 13.545 14.8062 14.0194 14.4153 14.3991C14.2313 14.584 14.012 14.73 13.7704 14.8282C13.5288 14.9265 13.2699 14.975 13.0091 14.9709H10.3429C9.77665 14.9709 9.30229 14.7806 8.92261 14.3991C8.73537 14.2139 8.58804 13.9924 8.48968 13.7481C8.39133 13.5039 8.34405 13.242 8.35075 12.9788V10.3126C8.35075 9.76607 8.54106 9.29733 8.92261 8.9064C9.10566 8.71543 9.32649 8.56471 9.57103 8.46382C9.81556 8.36294 10.0784 8.31412 10.3429 8.32048H13.0091V8.32048ZM13.8003 10.3417C13.8008 10.1276 13.7166 9.92197 13.5659 9.76982C13.4961 9.69116 13.4104 9.62831 13.3143 9.58546C13.2183 9.54262 13.1142 9.52077 13.0091 9.52138H10.3429C10.2377 9.52089 10.1335 9.54289 10.0375 9.58589C9.94147 9.6289 9.85573 9.69193 9.78602 9.77075C9.63539 9.92291 9.55113 10.1285 9.55166 10.3426V13.0079C9.55166 13.2235 9.6304 13.4082 9.78602 13.5647C9.94258 13.7203 10.1282 13.7991 10.3429 13.7991H13.0091C13.2247 13.7991 13.4094 13.7203 13.5659 13.5647C13.641 13.4928 13.7005 13.4063 13.7408 13.3106C13.7811 13.2148 13.8014 13.1118 13.8003 13.0079V10.3417Z" fill="#DEE1F0"/>
</g>
<defs>
<clipPath id="clip0">
<rect width="15" height="15" fill="DEE1F0"/>
</clipPath>
</defs>
</svg>
